<svg xmlns="http://www.w3.org/2000/svg" viewBox="0 0 1802.79 1653.53"><defs><style>.cls-1{fill:#6e6689;}.cls-2{fill:#353354;}.cls-2,.cls-43{opacity:0.2;}.cls-3{fill:#b26100;}.cls-4{fill:#dd9a3a;}.cls-5{fill:#ffb627;}.cls-6{fill:#ea9206;}.cls-42,.cls-6{opacity:0.4;}.cls-7{fill:#b26109;}.cls-8{fill:#1f0b54;}.cls-23,.cls-9{fill:#a05307;}.cls-9{opacity:0.6;}.cls-10{fill:#a35f04;}.cls-11{fill:#11ea53;}.cls-12{opacity:0.15;}.cls-13,.cls-14,.cls-17,.cls-18,.cls-31,.cls-36,.cls-37{fill:none;}.cls-13,.cls-14,.cls-16,.cls-17,.cls-18,.cls-19{stroke:#252525;}.cls-13,.cls-14,.cls-16,.cls-17,.cls-18,.cls-19,.cls-31,.cls-36,.cls-37{stroke-miterlimit:10;}.cls-13{stroke-width:4.23px;}.cls-14{stroke-width:3.52px;}.cls-15,.cls-16,.cls-19{fill:#414141;}.cls-17{stroke-width:4.06px;}.cls-18{stroke-width:3.37px;}.cls-19{stroke-width:0.96px;}.cls-20{fill:#6936cf;}.cls-21{fill:#e88805;}.cls-22{fill:#c46f08;}.cls-23{opacity:0.3;}.cls-24,.cls-42{fill:#d17a05;}.cls-25{fill:#ffc34e;}.cls-26{fill:#ef9830;}.cls-27{fill:#e8a624;}.cls-28{fill:#d19520;}.cls-29{fill:#ba6d04;}.cls-30{fill:#d8780f;}.cls-31,.cls-36,.cls-37{stroke:#6338aa;}.cls-31{stroke-width:2.86px;}.cls-32{fill:#6338aa;}.cls-33{fill:#fff;}.cls-34,.cls-43{fill:#2d1568;}.cls-35{fill:#482289;}.cls-36{stroke-width:2.93px;}.cls-37{stroke-width:3px;}.cls-38{fill:#bcbec0;}.cls-39{fill:#cecece;}.cls-40{fill:#ccc;opacity:0.47;}.cls-41{fill:#522bb2;opacity:0.5;}</style></defs><title>Asset 23</title><g id="Layer_2" data-name="Layer 2"><g id="Layer_4" data-name="Layer 4"><polygon class="cls-1" points="1784.78 1110.85 1732.42 1184.87 1707.45 1256.7 1645.79 1303.29 1589.28 1389.02 1541.6 1332.92 1501.39 1314.11 1479 1278.17 1419.96 1328.94 1413.95 1110.85 1784.78 1110.85"/><polygon class="cls-1" points="1419.96 1089.7 1419.96 1328.93 1324.36 1386.5 1298.13 1452.9 1248.53 1476.36 1206.52 1523.58 1204.63 1525.48 1202.99 1523.84 1177.23 1487.18 1144.19 1463.93 1083.22 1509.15 1070.16 1542.44 1009.65 1571.33 998.79 1595.31 965.18 1615.81 927.85 1653.13 894.05 1619.24 840.93 1587.14 824.59 1549.6 773.71 1517.04 739.45 1464.27 738.59 1463.4 677.17 1416.96 646.33 1432.22 642.62 1435.92 628.33 1460.42 598.32 1480.22 587.5 1491.04 545.19 1448.63 489.63 1424.33 464.88 1368.12 387.32 1319.93 362.78 1265.77 321.5 1231.56 321.5 1231.56 291.77 1292.13 255.63 1325.12 233.85 1346.9 231.48 1349.28 205.71 1323.45 185.23 1279.93 121.83 1239.27 111.15 1188.52 61.78 1156.12 21.39 1097.13 14.14 1086.54 1314.26 1086.54 1314.03 1086.77 1419.96 1089.7"/><polygon class="cls-2" points="1314.65 1086.94 1314.42 1087.16 1420.35 1118.32 1265.88 1276.57 1287.96 1359.25 1218.13 1422.92 1205.02 1525.87 1203.38 1524.23 1177.62 1487.58 1144.58 1464.33 1083.61 1509.55 1070.55 1542.84 1010.04 1571.73 999.19 1595.7 965.57 1616.19 928.25 1653.53 972.31 1509.82 904.24 1475.21 924.9 1415.11 823.38 1304.79 850.26 1228.09 595.61 1086.94 907.31 1086.94 962.66 1086.94 1217.88 1086.94 1314.65 1086.94"/><polygon class="cls-2" points="677.17 1416.97 646.33 1432.22 642.62 1435.92 628.33 1460.42 598.32 1480.22 587.5 1491.05 557.86 1404.97 571.04 1356.28 461.61 1312.16 479.85 1254 363.69 1179.12 321.5 1231.55 321.5 1231.56 291.76 1292.13 255.63 1325.12 233.85 1346.9 231.47 1349.27 257.98 1260.46 206.88 1232.55 237.34 1164.96 152.13 1086.54 202.19 1095.43 322.18 1096.31 332.6 1086.54 335.94 1096.29 400.13 1097.05 609.51 1263.95 623.97 1375.54 677.17 1416.97"/><polygon class="cls-2" points="811.92 1476.44 708.58 1330.25 830.53 1406.9 811.92 1476.44"/><polygon class="cls-3" points="1152.77 1103.71 1149.77 1109.96 1143.99 1110.62 1152.77 1103.71"/><path class="cls-4" d="M185.23,1230"/><path class="cls-4" d="M157,1210.63"/><polyline class="cls-2" points="63.88 1105.12 160.92 1213.13 118.14 1102.39"/><path class="cls-2" d="M1466.23,1178.78c0,.24-124.5,121.16-124.5,121.16l78.62-31.41Z"/><polygon class="cls-2" points="1784.78 1110.85 1732.42 1184.87 1707.45 1256.7 1645.79 1303.29 1589.28 1389.02 1613.3 1274.55 1566.04 1241.24 1607.65 1178.78 1560.93 1110.85 1784.78 1110.85"/><polygon class="cls-5" points="1077.35 173.57 927.55 173.57 1002.45 0 1077.21 173.14 1077.35 173.57"/><polygon class="cls-6" points="1077.21 173.14 1002.45 173.14 1002.45 0 1077.21 173.14"/><rect class="cls-7" x="927.7" y="173.42" width="149.52" height="103.32"/><path class="cls-8" d="M1002.46,210.51h0a19.63,19.63,0,0,1,19.63,19.63v43.38a.74.74,0,0,1-.74.74H983.56a.74.74,0,0,1-.74-.74V230.14A19.63,19.63,0,0,1,1002.46,210.51Z"/><path class="cls-8" d="M1022.09,273.17v.35a.73.73,0,0,1-.73.73h-37.8a.73.73,0,0,1-.73-.73V230.14a19.63,19.63,0,0,1,19.62-19.63v62.66Z"/><path class="cls-9" d="M1084.11,173.42v13.52h-6.89v86.23h-55.13v-43a19.63,19.63,0,0,0-19.63-19.63h0V173.42Z"/><rect class="cls-10" x="921.21" y="173.42" width="162.9" height="13.52"/><rect class="cls-9" x="1002.45" y="173.42" width="81.66" height="13.52"/><path class="cls-11" d="M24.92,1082.64S-23.82,1081.43,15,1172l10.85-48.43Z"/><polygon class="cls-11" points="41.4 1102.39 24.77 1117.04 41.4 1215.35 58.03 1117.04 41.4 1102.39"/><polygon class="cls-11" points="398 1105.12 384.54 1116.98 398 1196.58 411.47 1116.98 398 1105.12"/><polygon class="cls-11" points="597.24 1105.12 586.34 1114.71 597.24 1179.12 608.13 1114.71 597.24 1105.12"/><polygon class="cls-11" points="111.88 1107.02 99.46 1116 111.88 1176.27 124.3 1116 111.88 1107.02"/><polygon class="cls-11" points="429.09 1110.85 420.47 1117.08 429.09 1158.89 437.7 1117.08 429.09 1110.85"/><polygon class="cls-11" points="562.46 1110.85 553.84 1117.08 562.46 1158.89 571.07 1117.08 562.46 1110.85"/><g class="cls-12"><line class="cls-13" x1="204.44" y1="731.03" x2="204.44" y2="1082.64"/><line class="cls-13" x1="256.37" y1="731.03" x2="256.37" y2="1082.64"/><line class="cls-13" x1="372.88" y1="731.03" x2="372.88" y2="1082.64"/><line class="cls-13" x1="424.81" y1="731.03" x2="424.81" y2="1082.64"/><line class="cls-14" x1="256.37" y1="809.45" x2="204.44" y2="809.45"/><path class="cls-14" d="M256.37,809.45"/><path class="cls-14" d="M372.32,809.45"/><line class="cls-14" x1="424.81" y1="809.45" x2="372.32" y2="809.45"/><line class="cls-14" x1="257.98" y1="880.23" x2="204.44" y2="880.23"/><line class="cls-14" x1="424.81" y1="880.23" x2="371.44" y2="880.23"/><line class="cls-14" x1="256.37" y1="844.84" x2="204.44" y2="844.84"/><path class="cls-14" d="M256.37,844.84"/><line class="cls-14" x1="424.81" y1="844.84" x2="372.32" y2="844.84"/><line class="cls-14" x1="257.39" y1="944.11" x2="204.44" y2="944.11"/><path class="cls-14" d="M257.39,944.11"/><path class="cls-14" d="M371.45,944.11"/><line class="cls-14" x1="424.81" y1="944.11" x2="371.45" y2="944.11"/><line class="cls-14" x1="257.98" y1="1014.9" x2="204.44" y2="1014.9"/><path class="cls-14" d="M258,1014.9"/><path class="cls-14" d="M372,1014.9"/><line class="cls-14" x1="424.81" y1="1014.9" x2="372.02" y2="1014.9"/><line class="cls-14" x1="257.39" y1="979.5" x2="204.44" y2="979.5"/><path class="cls-14" d="M257.39,979.5"/><path class="cls-14" d="M371.45,979.5"/><line class="cls-14" x1="424.81" y1="979.5" x2="371.45" y2="979.5"/><line class="cls-14" x1="424.81" y1="745.6" x2="204.44" y2="745.6"/><line class="cls-14" x1="424.81" y1="762.31" x2="204.44" y2="762.31"/><rect class="cls-15" x="204.44" y="774.77" width="220.36" height="5.48"/><rect class="cls-15" x="204.44" y="909.43" width="220.36" height="5.48"/><rect class="cls-16" x="204.44" y="1044.09" width="220.36" height="5.48"/><line class="cls-14" x1="256.37" y1="777.51" x2="372.88" y2="912.17"/><path class="cls-14" d="M372.88,912.17"/><path class="cls-14" d="M204.44,844.84"/><line class="cls-14" x1="372.88" y1="777.51" x2="256.37" y2="912.17"/><line class="cls-14" x1="256.37" y1="912.17" x2="372.88" y2="1046.83"/><line class="cls-14" x1="372.88" y1="912.17" x2="256.37" y2="1046.83"/></g><g class="cls-12"><line class="cls-17" x1="465.46" y1="430.9" x2="465.46" y2="767.82"/><line class="cls-17" x1="515.22" y1="430.9" x2="515.22" y2="767.82"/><line class="cls-17" x1="626.86" y1="430.9" x2="626.86" y2="767.82"/><line class="cls-17" x1="676.62" y1="430.9" x2="676.62" y2="767.82"/><line class="cls-18" x1="515.22" y1="506.04" x2="465.46" y2="506.04"/><path class="cls-18" d="M515.22,506"/><path class="cls-18" d="M626.32,506"/><line class="cls-18" x1="676.62" y1="506.04" x2="626.32" y2="506.04"/><line class="cls-18" x1="516.76" y1="573.87" x2="465.46" y2="573.87"/><line class="cls-18" x1="676.62" y1="573.87" x2="625.48" y2="573.87"/><line class="cls-18" x1="515.22" y1="539.96" x2="465.46" y2="539.96"/><path class="cls-18" d="M515.22,540"/><line class="cls-18" x1="676.62" y1="539.96" x2="626.32" y2="539.96"/><line class="cls-18" x1="516.2" y1="635.08" x2="465.46" y2="635.08"/><path class="cls-18" d="M516.2,635.08"/><path class="cls-18" d="M625.49,635.08"/><line class="cls-18" x1="676.62" y1="635.08" x2="625.49" y2="635.08"/><line class="cls-18" x1="516.76" y1="702.91" x2="465.46" y2="702.91"/><path class="cls-18" d="M516.76,702.91"/><path class="cls-18" d="M626,702.91"/><line class="cls-18" x1="676.62" y1="702.91" x2="626.03" y2="702.91"/><line class="cls-18" x1="516.2" y1="668.99" x2="465.46" y2="668.99"/><path class="cls-18" d="M516.2,669"/><path class="cls-18" d="M625.49,669"/><line class="cls-18" x1="676.62" y1="668.99" x2="625.49" y2="668.99"/><line class="cls-18" x1="676.62" y1="444.86" x2="465.46" y2="444.86"/><line class="cls-18" x1="676.62" y1="460.88" x2="465.46" y2="460.88"/><rect class="cls-15" x="465.46" y="472.81" width="211.16" height="5.25"/><rect class="cls-15" x="465.46" y="601.85" width="211.16" height="5.25"/><rect class="cls-19" x="465.46" y="730.89" width="211.16" height="5.25"/><line class="cls-18" x1="515.22" y1="475.44" x2="626.86" y2="604.48"/><path class="cls-18" d="M626.86,604.48"/><path class="cls-18" d="M465.46,540"/><line class="cls-18" x1="626.86" y1="475.44" x2="515.22" y2="604.48"/><line class="cls-18" x1="515.22" y1="604.48" x2="626.86" y2="733.51"/><line class="cls-18" x1="626.86" y1="604.48" x2="515.22" y2="733.51"/></g><g class="cls-12"><line class="cls-17" x1="1326.36" y1="465.1" x2="1326.36" y2="802.03"/><line class="cls-17" x1="1376.12" y1="465.1" x2="1376.12" y2="802.03"/><line class="cls-17" x1="1487.76" y1="465.1" x2="1487.76" y2="802.03"/><line class="cls-17" x1="1537.52" y1="465.1" x2="1537.52" y2="802.03"/><line class="cls-18" x1="1376.12" y1="540.25" x2="1326.36" y2="540.25"/><path class="cls-18" d="M1376.12,540.25"/><path class="cls-18" d="M1487.22,540.25"/><line class="cls-18" x1="1537.52" y1="540.25" x2="1487.22" y2="540.25"/><line class="cls-18" x1="1377.66" y1="608.08" x2="1326.36" y2="608.08"/><line class="cls-18" x1="1537.52" y1="608.08" x2="1486.39" y2="608.08"/><line class="cls-18" x1="1376.12" y1="574.16" x2="1326.36" y2="574.16"/><path class="cls-18" d="M1376.12,574.16"/><line class="cls-18" x1="1537.52" y1="574.16" x2="1487.22" y2="574.16"/><line class="cls-18" x1="1377.1" y1="669.28" x2="1326.36" y2="669.28"/><path class="cls-18" d="M1377.1,669.28"/><path class="cls-18" d="M1486.39,669.28"/><line class="cls-18" x1="1537.52" y1="669.28" x2="1486.39" y2="669.28"/><line class="cls-18" x1="1377.66" y1="737.11" x2="1326.36" y2="737.11"/><path class="cls-18" d="M1377.66,737.11"/><path class="cls-18" d="M1486.93,737.11"/><line class="cls-18" x1="1537.52" y1="737.11" x2="1486.93" y2="737.11"/><line class="cls-18" x1="1377.1" y1="703.2" x2="1326.36" y2="703.2"/><path class="cls-18" d="M1377.1,703.2"/><path class="cls-18" d="M1486.39,703.2"/><line class="cls-18" x1="1537.52" y1="703.2" x2="1486.39" y2="703.2"/><line class="cls-18" x1="1537.52" y1="479.06" x2="1326.36" y2="479.06"/><line class="cls-18" x1="1537.52" y1="495.08" x2="1326.36" y2="495.08"/><rect class="cls-15" x="1326.36" y="507.02" width="211.16" height="5.25"/><rect class="cls-15" x="1326.36" y="636.05" width="211.16" height="5.25"/><rect class="cls-19" x="1326.36" y="765.09" width="211.16" height="5.25"/><line class="cls-18" x1="1376.12" y1="509.64" x2="1487.76" y2="638.68"/><path class="cls-18" d="M1487.76,638.68"/><path class="cls-18" d="M1326.36,574.16"/><line class="cls-18" x1="1487.76" y1="509.64" x2="1376.12" y2="638.68"/><line class="cls-18" x1="1376.12" y1="638.68" x2="1487.76" y2="767.72"/><line class="cls-18" x1="1487.76" y1="638.68" x2="1376.12" y2="767.72"/></g><g class="cls-12"><line class="cls-17" x1="1503.23" y1="745.71" x2="1503.23" y2="1082.64"/><line class="cls-17" x1="1552.99" y1="745.71" x2="1552.99" y2="1082.64"/><line class="cls-17" x1="1664.62" y1="745.71" x2="1664.62" y2="1082.64"/><line class="cls-17" x1="1714.38" y1="745.71" x2="1714.38" y2="1082.64"/><line class="cls-18" x1="1552.99" y1="820.86" x2="1503.23" y2="820.86"/><path class="cls-18" d="M1553,820.86"/><path class="cls-18" d="M1664.09,820.86"/><line class="cls-18" x1="1714.38" y1="820.86" x2="1664.09" y2="820.86"/><line class="cls-18" x1="1554.52" y1="888.69" x2="1503.23" y2="888.69"/><line class="cls-18" x1="1714.38" y1="888.69" x2="1663.25" y2="888.69"/><line class="cls-18" x1="1552.99" y1="854.77" x2="1503.23" y2="854.77"/><path class="cls-18" d="M1553,854.77"/><line class="cls-18" x1="1714.38" y1="854.77" x2="1664.09" y2="854.77"/><line class="cls-18" x1="1553.96" y1="949.89" x2="1503.23" y2="949.89"/><path class="cls-18" d="M1554,949.89"/><path class="cls-18" d="M1663.25,949.89"/><line class="cls-18" x1="1714.38" y1="949.89" x2="1663.25" y2="949.89"/><line class="cls-18" x1="1554.52" y1="1017.72" x2="1503.23" y2="1017.72"/><path class="cls-18" d="M1554.52,1017.72"/><path class="cls-18" d="M1663.8,1017.72"/><line class="cls-18" x1="1714.38" y1="1017.72" x2="1663.8" y2="1017.72"/><line class="cls-18" x1="1553.96" y1="983.81" x2="1503.23" y2="983.81"/><path class="cls-18" d="M1554,983.81"/><path class="cls-18" d="M1663.25,983.81"/><line class="cls-18" x1="1714.38" y1="983.81" x2="1663.25" y2="983.81"/><line class="cls-18" x1="1714.38" y1="759.67" x2="1503.23" y2="759.67"/><line class="cls-18" x1="1714.38" y1="775.69" x2="1503.23" y2="775.69"/><rect class="cls-15" x="1503.23" y="787.63" width="211.16" height="5.25"/><rect class="cls-15" x="1503.23" y="916.66" width="211.16" height="5.25"/><rect class="cls-19" x="1503.23" y="1045.7" width="211.16" height="5.25"/><line class="cls-18" x1="1552.99" y1="790.26" x2="1664.62" y2="919.29"/><path class="cls-18" d="M1664.62,919.29"/><path class="cls-18" d="M1503.23,854.77"/><line class="cls-18" x1="1664.62" y1="790.26" x2="1552.99" y2="919.29"/><line class="cls-18" x1="1552.99" y1="919.29" x2="1664.62" y2="1048.33"/><line class="cls-18" x1="1664.62" y1="919.29" x2="1552.99" y2="1048.33"/></g><path class="cls-8" d="M388.19,863h198a0,0,0,0,1,0,0v82.42a0,0,0,0,1,0,0H382.44a0,0,0,0,1,0,0V868.75A5.75,5.75,0,0,1,388.19,863Z"/><path class="cls-8" d="M420.57,833.56H498a0,0,0,0,1,0,0V863a0,0,0,0,1,0,0H414.82a0,0,0,0,1,0,0V839.32A5.75,5.75,0,0,1,420.57,833.56Z"/><path class="cls-8" d="M463.78,718.14h88.06a0,0,0,0,1,0,0v98.25a0,0,0,0,1,0,0H458a0,0,0,0,1,0,0V723.89A5.75,5.75,0,0,1,463.78,718.14Z"/><path class="cls-8" d="M497.45,589.12h59.21a0,0,0,0,1,0,0V728.5a0,0,0,0,1,0,0H492.34a0,0,0,0,1,0,0V594.24A5.11,5.11,0,0,1,497.45,589.12Z"/><path class="cls-20" d="M1224.77,196.15q0,15.56,0,31.11t0,31.11c34-29,68.05-2.07,102.08-31.11C1292.82,235.56,1258.79,187.85,1224.77,196.15Z"/><rect class="cls-8" x="1222.46" y="192.47" width="5" height="239.67"/><path class="cls-20" d="M780.77,196.15q0,15.56,0,31.11t0,31.11c34-29,68.05-2.07,102.08-31.11C848.82,235.56,814.8,187.85,780.77,196.15Z"/><rect class="cls-8" x="778.46" y="192.47" width="5" height="243.64"/><polygon class="cls-21" points="679.43 610.34 679.43 1082.64 586.3 1082.64 586.3 610.34 621.69 610.34 621.69 632.9 644.04 632.9 644.04 610.34 679.43 610.34"/><path class="cls-5" d="M586.3,555.95V956.9h-.15v125.74H382.44v-179a5.27,5.27,0,0,1,5.27-5.28h58.76V788.91a4.38,4.38,0,0,1,4.38-4.38h76.47V556.73a.78.78,0,0,1,.78-.78Z"/><polygon class="cls-22" points="1102.24 246.68 1102.24 303.81 1083.88 316.96 1083.88 494.88 920.04 494.88 920.04 316.96 901.68 303.81 901.68 246.68 930.9 246.68 930.9 273.12 958.87 273.12 958.87 246.68 988.09 246.68 988.09 273.12 1015.98 273.12 1015.98 246.68 1045.2 246.68 1045.2 273.12 1073.02 273.12 1073.02 246.68 1102.24 246.68"/><rect class="cls-21" x="1073.02" y="244.1" width="29.22" height="5.15"/><rect class="cls-21" x="1015.98" y="244.1" width="29.22" height="5.15"/><polygon class="cls-23" points="1102.24 244.1 1102.24 303.81 1083.88 316.96 1083.88 460.31 1002.66 460.31 1002.66 273.12 1015.98 273.12 1015.98 244.1 1045.2 244.1 1045.2 273.12 1073.02 273.12 1073.02 244.1 1102.24 244.1"/><polygon class="cls-21" points="1132.88 451.32 1132.88 1082.64 872.04 1082.64 872.04 451.32 890.18 451.32 890.18 422.63 940.74 422.63 940.74 451.32 977.85 451.32 977.85 422.63 1028.41 422.63 1028.41 451.32 1065.52 451.32 1065.52 422.63 1116.08 422.63 1116.08 451.32 1132.88 451.32"/><polygon class="cls-24" points="1078.33 1082.64 927.94 1082.64 927.94 548.82 1003.13 532.22 1078.33 548.82 1078.33 1082.64"/><rect class="cls-5" x="679.43" y="454.46" width="203.71" height="628.18"/><rect class="cls-5" x="658.56" y="379.95" width="50.76" height="37.33"/><rect class="cls-25" x="658.56" y="368.95" width="50.76" height="11"/><rect class="cls-25" x="755.91" y="368.95" width="50.76" height="11"/><rect class="cls-25" x="853.26" y="368.95" width="50.76" height="11"/><rect class="cls-26" x="904.02" y="411.62" width="36.72" height="11"/><rect class="cls-26" x="977.85" y="411.62" width="50.56" height="11"/><rect class="cls-26" x="1065.52" y="411.62" width="36.72" height="11"/><rect class="cls-5" x="755.91" y="379.95" width="50.76" height="37.33"/><rect class="cls-5" x="853.26" y="379.95" width="50.76" height="37.33"/><rect class="cls-8" x="679.43" y="466.09" width="203.72" height="41.28"/><path class="cls-5" d="M904,417.29v98.84H853.26V489a21.84,21.84,0,0,0-6.82-15.79A23.75,23.75,0,0,0,830,466.71c-12.86,0-23.29,10-23.29,22.33v27.09H755.91V489c0-12.33-10.43-22.33-23.3-22.33s-23.29,10-23.29,22.33v27.09H658.56V417.29Z"/><rect class="cls-27" x="760.41" y="516.13" width="41.75" height="14.3"/><rect class="cls-27" x="862.27" y="516.13" width="41.75" height="14.3"/><rect class="cls-28" x="862.27" y="530.43" width="36.06" height="14.29"/><rect class="cls-29" x="939.35" y="850.49" width="127.56" height="232.14"/><path class="cls-21" d="M1057.43,1082.64H948.83V963c0-33.76,23.11-62.41,54.3-67.34h0c31.19,4.93,54.3,33.59,54.3,67.34Z"/><path class="cls-10" d="M1050,1082.64H956.29V963.16c0-29.89,19.93-55.26,46.84-59.62h0c26.91,4.36,46.84,29.74,46.84,59.62Z"/><rect class="cls-21" x="934.91" y="840.8" width="136.39" height="9.69"/><rect class="cls-27" x="658.56" y="516.13" width="41.75" height="14.3"/><rect class="cls-28" x="664.24" y="530.43" width="36.06" height="14.3"/><path class="cls-5" d="M1123.11,454.46v628.18h203.72V454.46Zm127,52.91V489c0-12.33,10.43-22.33,23.29-22.33a23.77,23.77,0,0,1,16.48,6.54,21.84,21.84,0,0,1,6.82,15.79v18.33Z"/><rect class="cls-25" x="1102.01" y="368.95" width="50.76" height="11"/><rect class="cls-25" x="1199.42" y="369.12" width="50.76" height="11"/><rect class="cls-21" x="989.93" y="779.24" width="26.41" height="7.08" rx="1" ry="1"/><rect class="cls-25" x="1296.71" y="368.95" width="50.76" height="11"/><path class="cls-8" d="M1326.83,466.1v41.27h-30.12V489a21.84,21.84,0,0,0-6.82-15.79,23.77,23.77,0,0,0-16.48-6.54c-12.86,0-23.29,10-23.29,22.33v18.33h-127V466.1Z"/><rect class="cls-21" x="989.93" y="652.19" width="26.41" height="7.08" rx="1" ry="1"/><rect class="cls-29" x="966.32" y="1049.98" width="73.62" height="19.88"/><rect class="cls-29" x="966.32" y="1018.03" width="73.62" height="19.88"/><rect class="cls-29" x="966.28" y="986.03" width="73.62" height="19.88"/><rect class="cls-29" x="966.28" y="954.08" width="73.62" height="19.88"/><path class="cls-8" d="M1326.83,466.1v41.27h-30.12V489a21.84,21.84,0,0,0-6.82-15.79,23.77,23.77,0,0,0-16.48-6.54c-12.86,0-23.29,10-23.29,22.33v18.33h-127V466.1Z"/><path class="cls-8" d="M1326.83,466.1v41.27h-30.12V489a21.84,21.84,0,0,0-6.82-15.79,23.77,23.77,0,0,0-16.48-6.54c-12.86,0-23.29,10-23.29,22.33v18.33h-127V466.1Z"/><polygon class="cls-23" points="1123.11 451.32 1123.11 1082.64 1002.46 1082.64 1002.66 411.62 1028.41 411.62 1028.41 451.32 1065.52 451.32 1065.52 411.62 1116.08 411.62 1116.08 451.32 1123.11 451.32"/><path class="cls-8" d="M1326.83,466.1v41.27h-30.12V489a21.84,21.84,0,0,0-6.82-15.79,23.77,23.77,0,0,0-16.48-6.54c-12.86,0-23.29,10-23.29,22.33v18.33h-127V466.1Z"/><rect class="cls-8" x="1125.6" y="466.09" width="203.72" height="41.28"/><rect class="cls-5" x="1102.01" y="379.95" width="50.76" height="37.33"/><rect class="cls-5" x="1296.71" y="379.96" width="50.76" height="37.33"/><path class="cls-5" d="M1347.47,417.29v98.84h-50.76V489a21.84,21.84,0,0,0-6.82-15.79,23.77,23.77,0,0,0-16.48-6.54c-12.86,0-23.29,10-23.29,22.33v27.09h-50.76V489c0-12.33-10.43-22.33-23.3-22.33s-23.29,10-23.29,22.33v27.09H1102V417.29h97.42V380.13h50.76v37.16Z"/><rect class="cls-27" x="1204.1" y="516.13" width="41.75" height="14.3"/><rect class="cls-28" x="1208.31" y="530.43" width="33.34" height="14.3"/><rect class="cls-28" x="764.62" y="530.43" width="33.34" height="14.3"/><rect class="cls-27" x="1305.96" y="516.13" width="41.51" height="14.3"/><rect class="cls-28" x="1305.96" y="530.43" width="36.06" height="14.3"/><path class="cls-30" d="M1026.05,365c0,12-10.56,23.92-23.59,23.92S978.87,377,978.87,365"/><rect class="cls-27" x="1102.24" y="516.13" width="41.75" height="14.3"/><rect class="cls-28" x="1107.93" y="530.43" width="36.06" height="14.3"/><path class="cls-8" d="M1002.46,314h0a19.63,19.63,0,0,1,19.63,19.63v22.78a0,0,0,0,1,0,0H982.83a0,0,0,0,1,0,0V333.67A19.63,19.63,0,0,1,1002.46,314Z"/><rect class="cls-21" x="975" y="356.44" width="54.93" height="8.58" rx="1.32" ry="1.32"/><rect class="cls-26" x="644.04" y="601.85" width="35.39" height="8.49"/><rect class="cls-26" x="586.3" y="601.85" width="35.39" height="8.49"/><path class="cls-25" d="M552.4,984.24H528a2.11,2.11,0,0,0-2.11,2.11v10.71a2.11,2.11,0,0,0,2.11,2.11H552.4a2.11,2.11,0,0,0,2.11-2.11V986.34A2.11,2.11,0,0,0,552.4,984.24Z"/><path class="cls-25" d="M419.53,1022.46H395.17a2.11,2.11,0,0,0-2.11,2.11v10.71a2.11,2.11,0,0,0,2.11,2.11h24.37a2.11,2.11,0,0,0,2.11-2.11v-10.71A2.11,2.11,0,0,0,419.53,1022.46Z"/><path class="cls-25" d="M428.83,950.78H404.46a2.11,2.11,0,0,0-2.11,2.11v10.71a2.11,2.11,0,0,0,2.11,2.11h24.37a2.11,2.11,0,0,0,2.11-2.11V952.88A2.11,2.11,0,0,0,428.83,950.78Z"/><path class="cls-25" d="M533.56,1004.12H509.19a2.11,2.11,0,0,0-2.11,2.11v10.71a2.11,2.11,0,0,0,2.11,2.11h24.37a2.11,2.11,0,0,0,2.11-2.11v-10.71A2.11,2.11,0,0,0,533.56,1004.12Z"/><path class="cls-25" d="M494.38,831.14H470a2.11,2.11,0,0,0-2.11,2.11V844a2.11,2.11,0,0,0,2.11,2.11h24.37a2.11,2.11,0,0,0,2.11-2.11V833.25A2.11,2.11,0,0,0,494.38,831.14Z"/><path class="cls-25" d="M511.4,851.22H487a2.11,2.11,0,0,0-2.11,2.11V864a2.11,2.11,0,0,0,2.11,2.11H511.4a2.11,2.11,0,0,0,2.11-2.11V853.33A2.11,2.11,0,0,0,511.4,851.22Z"/><path class="cls-25" d="M477.74,851H453.37a2.11,2.11,0,0,0-2.11,2.11v10.71a2.11,2.11,0,0,0,2.11,2.11h24.37a2.11,2.11,0,0,0,2.11-2.11V853.13A2.11,2.11,0,0,0,477.74,851Z"/><path class="cls-25" d="M384.54,1043h18.92a0,0,0,0,1,0,0v14.92a0,0,0,0,1,0,0H384.54a2.11,2.11,0,0,1-2.11-2.11v-10.71A2.11,2.11,0,0,1,384.54,1043Z" transform="translate(785.9 2100.82) rotate(180)"/><path class="cls-25" d="M566.33,776.38h18.92a0,0,0,0,1,0,0V791.3a0,0,0,0,1,0,0H566.33a2.11,2.11,0,0,1-2.11-2.11V778.49A2.11,2.11,0,0,1,566.33,776.38Z"/><line class="cls-31" x1="310.27" y1="796.46" x2="310.27" y2="1082.63"/><line class="cls-31" x1="352.54" y1="796.46" x2="352.54" y2="1082.63"/><line class="cls-31" x1="447.36" y1="796.46" x2="447.36" y2="1082.63"/><line class="cls-31" x1="489.63" y1="796.46" x2="489.63" y2="1082.63"/><line class="cls-31" x1="352.54" y1="860.29" x2="310.27" y2="860.29"/><path class="cls-31" d="M352.54,860.29"/><path class="cls-31" d="M446.91,860.29"/><line class="cls-31" x1="489.63" y1="860.29" x2="446.91" y2="860.29"/><line class="cls-31" x1="353.85" y1="917.9" x2="310.27" y2="917.9"/><line class="cls-31" x1="489.63" y1="917.9" x2="446.2" y2="917.9"/><line class="cls-31" x1="352.54" y1="889.09" x2="310.27" y2="889.09"/><path class="cls-31" d="M352.54,889.09"/><line class="cls-31" x1="489.63" y1="889.09" x2="446.91" y2="889.09"/><line class="cls-31" x1="353.37" y1="969.89" x2="310.27" y2="969.89"/><path class="cls-31" d="M353.37,969.89"/><path class="cls-31" d="M446.2,969.89"/><line class="cls-31" x1="489.63" y1="969.89" x2="446.2" y2="969.89"/><line class="cls-31" x1="353.85" y1="1027.5" x2="310.27" y2="1027.5"/><path class="cls-31" d="M353.85,1027.5"/><path class="cls-31" d="M446.66,1027.5"/><line class="cls-31" x1="489.63" y1="1027.5" x2="446.66" y2="1027.5"/><line class="cls-31" x1="353.37" y1="998.69" x2="310.27" y2="998.69"/><path class="cls-31" d="M353.37,998.69"/><path class="cls-31" d="M446.2,998.69"/><line class="cls-31" x1="489.63" y1="998.69" x2="446.2" y2="998.69"/><line class="cls-31" x1="489.63" y1="808.32" x2="310.27" y2="808.32"/><line class="cls-31" x1="489.8" y1="821.8" x2="310.45" y2="821.8"/><rect class="cls-32" x="310.27" y="832.06" width="179.35" height="4.46"/><rect class="cls-32" x="310.27" y="941.66" width="179.35" height="4.46"/><rect class="cls-32" x="310.27" y="1051.26" width="179.35" height="4.46"/><line class="cls-31" x1="352.54" y1="834.29" x2="447.36" y2="943.89"/><line class="cls-31" x1="447.36" y1="834.29" x2="352.54" y2="943.89"/><line class="cls-31" x1="447.36" y1="943.89" x2="352.54" y2="1053.49"/><line class="cls-31" x1="352.54" y1="943.89" x2="447.36" y2="1053.49"/><path class="cls-8" d="M731.89,597.31h0a9.42,9.42,0,0,1,9.42,9.42v49.55a0,0,0,0,1,0,0H722.47a0,0,0,0,1,0,0V606.73A9.42,9.42,0,0,1,731.89,597.31Z"/><path class="cls-8" d="M830.68,716.2h0a9.42,9.42,0,0,1,9.42,9.42v49.55a0,0,0,0,1,0,0H821.27a0,0,0,0,1,0,0V725.62A9.42,9.42,0,0,1,830.68,716.2Z"/><path class="cls-8" d="M731.89,863h0a9.42,9.42,0,0,1,9.42,9.42V922a0,0,0,0,1,0,0H722.47a0,0,0,0,1,0,0V872.41A9.42,9.42,0,0,1,731.89,863Z"/><path class="cls-8" d="M1274.37,597.31h0a9.42,9.42,0,0,1,9.42,9.42v49.55a0,0,0,0,1,0,0H1265a0,0,0,0,1,0,0V606.73a9.42,9.42,0,0,1,9.42-9.42Z"/><path class="cls-8" d="M1003.13,606.13h0a9.42,9.42,0,0,1,9.42,9.42v36.64a0,0,0,0,1,0,0H993.71a0,0,0,0,1,0,0V615.55A9.42,9.42,0,0,1,1003.13,606.13Z"/><path class="cls-8" d="M631.63,714.6h0A9.42,9.42,0,0,1,641,724v36.64a0,0,0,0,1,0,0H622.21a0,0,0,0,1,0,0V724A9.42,9.42,0,0,1,631.63,714.6Z"/><path class="cls-8" d="M632.87,714.69v46H622.21V724a9.42,9.42,0,0,1,9.42-9.42A8.41,8.41,0,0,1,632.87,714.69Z"/><path class="cls-8" d="M1003.13,733.18h0a9.42,9.42,0,0,1,9.42,9.42v36.64a0,0,0,0,1,0,0H993.71a0,0,0,0,1,0,0V742.6A9.42,9.42,0,0,1,1003.13,733.18Z"/><path class="cls-8" d="M1175.57,716.2h0a9.42,9.42,0,0,1,9.42,9.42v49.55a0,0,0,0,1,0,0h-18.84a0,0,0,0,1,0,0V725.62A9.42,9.42,0,0,1,1175.57,716.2Z"/><path class="cls-8" d="M1274.37,860.84h0a9.42,9.42,0,0,1,9.42,9.42v49.55a0,0,0,0,1,0,0H1265a0,0,0,0,1,0,0V870.26A9.42,9.42,0,0,1,1274.37,860.84Z"/><rect class="cls-25" x="1138.81" y="822.47" width="73.53" height="6.43" rx="3.11" ry="3.11"/><path class="cls-8" d="M1274.37,863h0a9.42,9.42,0,0,1,9.42,9.42V922a0,0,0,0,1,0,0H1265a0,0,0,0,1,0,0V872.41A9.42,9.42,0,0,1,1274.37,863Z"/><path class="cls-25" d="M1154.32,1042.4h24.37a2.11,2.11,0,0,1,2.11,2.11v10.71a2.11,2.11,0,0,1-2.11,2.11h-24.37a2.11,2.11,0,0,1-2.11-2.11V1044.5A2.11,2.11,0,0,1,1154.32,1042.4Z"/><polygon class="cls-21" points="1420.1 610.34 1420.1 1082.64 1326.97 1082.64 1326.97 610.34 1362.36 610.34 1362.36 632.9 1384.7 632.9 1384.7 610.34 1420.1 610.34"/><rect class="cls-26" x="1326.83" y="601.85" width="35.39" height="8.49" transform="translate(2689.05 1212.18) rotate(-180)"/><rect class="cls-26" x="1384.56" y="601.85" width="35.39" height="8.49" transform="translate(2804.52 1212.18) rotate(-180)"/><path class="cls-8" d="M1364,714.6h18.84a0,0,0,0,1,0,0v36.64a9.42,9.42,0,0,1-9.42,9.42h0a9.42,9.42,0,0,1-9.42-9.42V714.6a0,0,0,0,1,0,0Z" transform="translate(2746.79 1475.26) rotate(-180)"/><path class="cls-26" d="M1405.31,679.34H1420a0,0,0,0,1,0,0v14.92a0,0,0,0,1,0,0h-14.65a2.11,2.11,0,0,1-2.11-2.11V681.45A2.11,2.11,0,0,1,1405.31,679.34Z"/><path class="cls-26" d="M1328.94,669.4h14.65a0,0,0,0,1,0,0v14.92a0,0,0,0,1,0,0h-14.65a2.11,2.11,0,0,1-2.11-2.11V671.5A2.11,2.11,0,0,1,1328.94,669.4Z" transform="translate(2670.42 1353.72) rotate(-180)"/><path class="cls-26" d="M1328.94,649h23a0,0,0,0,1,0,0V664a0,0,0,0,1,0,0h-23a2.11,2.11,0,0,1-2.11-2.11V651.14a2.11,2.11,0,0,1,2.11-2.11Z" transform="translate(2678.79 1312.98) rotate(-180)"/><path class="cls-26" d="M1341.49,872.51h24.37a2.11,2.11,0,0,1,2.11,2.11v10.71a2.11,2.11,0,0,1-2.11,2.11h-24.37a2.11,2.11,0,0,1-2.11-2.11V874.62A2.11,2.11,0,0,1,1341.49,872.51Z"/><path class="cls-26" d="M1361.23,852.14h24.37a2.11,2.11,0,0,1,2.11,2.11V865a2.11,2.11,0,0,1-2.11,2.11h-24.37a2.11,2.11,0,0,1-2.11-2.11V854.25A2.11,2.11,0,0,1,1361.23,852.14Z"/><path class="cls-26" d="M1356.9,984.73h24.37a2.11,2.11,0,0,1,2.11,2.11v10.71a2.11,2.11,0,0,1-2.11,2.11H1356.9a2.11,2.11,0,0,1-2.11-2.11V986.83A2.11,2.11,0,0,1,1356.9,984.73Z"/><path class="cls-26" d="M1363.86,964.36h24.37a2.11,2.11,0,0,1,2.11,2.11v10.71a2.11,2.11,0,0,1-2.11,2.11h-24.37a2.11,2.11,0,0,1-2.11-2.11V966.46A2.11,2.11,0,0,1,1363.86,964.36Z"/><rect class="cls-26" x="1360.19" y="760.66" width="26.41" height="7.08" rx="1" ry="1" transform="translate(2746.79 1528.39) rotate(-180)"/><path class="cls-25" d="M851.73,1042.4H827.36a2.11,2.11,0,0,0-2.11,2.11v10.71a2.11,2.11,0,0,0,2.11,2.11h24.37a2.11,2.11,0,0,0,2.11-2.11V1044.5A2.11,2.11,0,0,0,851.73,1042.4Z"/><path class="cls-26" d="M658.19,852.14h21.24a0,0,0,0,1,0,0v14.92a0,0,0,0,1,0,0H658.19a2.11,2.11,0,0,1-2.11-2.11V854.25A2.11,2.11,0,0,1,658.19,852.14Z"/><path class="cls-26" d="M588.41,679.34h14.65a0,0,0,0,1,0,0v14.92a0,0,0,0,1,0,0H588.41a2.11,2.11,0,0,1-2.11-2.11V681.45A2.11,2.11,0,0,1,588.41,679.34Z" transform="translate(1189.36 1373.6) rotate(-180)"/><path class="cls-26" d="M664.78,669.4h14.65a0,0,0,0,1,0,0v14.92a0,0,0,0,1,0,0H664.78a2.11,2.11,0,0,1-2.11-2.11V671.5A2.11,2.11,0,0,1,664.78,669.4Z"/><path class="cls-26" d="M656.4,649h23a0,0,0,0,1,0,0V664a0,0,0,0,1,0,0h-23a2.11,2.11,0,0,1-2.11-2.11V651.14A2.11,2.11,0,0,1,656.4,649Z"/><path class="cls-25" d="M681.36,769.37h23a0,0,0,0,1,0,0v14.92a0,0,0,0,1,0,0h-23a2.11,2.11,0,0,1-2.11-2.11V771.48a2.11,2.11,0,0,1,2.11-2.11Z" transform="translate(1383.63 1553.66) rotate(180)"/><path class="cls-25" d="M529.28,665.38h23a0,0,0,0,1,0,0V680.3a0,0,0,0,1,0,0h-23a2.11,2.11,0,0,1-2.11-2.11V667.49A2.11,2.11,0,0,1,529.28,665.38Z" transform="translate(1079.47 1345.69) rotate(-180)"/><path class="cls-25" d="M660.66,439.6h23a0,0,0,0,1,0,0v14.92a0,0,0,0,1,0,0h-23a2.11,2.11,0,0,1-2.11-2.11V441.7A2.11,2.11,0,0,1,660.66,439.6Z" transform="translate(1342.25 894.12) rotate(180)"/><path class="cls-25" d="M681.54,749h15.39a0,0,0,0,1,0,0v14.92a0,0,0,0,1,0,0H681.54a2.11,2.11,0,0,1-2.11-2.11V751.11A2.11,2.11,0,0,1,681.54,749Z" transform="translate(1376.36 1512.93) rotate(180)"/><path class="cls-25" d="M529.28,685.26h15.39a0,0,0,0,1,0,0v14.92a0,0,0,0,1,0,0H529.28a2.11,2.11,0,0,1-2.11-2.11V687.37A2.11,2.11,0,0,1,529.28,685.26Z" transform="translate(1071.84 1385.45) rotate(180)"/><path class="cls-25" d="M660.66,460.95h15.39a0,0,0,0,1,0,0v14.92a0,0,0,0,1,0,0H660.66a2.11,2.11,0,0,1-2.11-2.11V463.06A2.11,2.11,0,0,1,660.66,460.95Z" transform="translate(1334.61 936.82) rotate(180)"/><path class="cls-25" d="M681.54,569.32h15.39a0,0,0,0,1,0,0v14.92a0,0,0,0,1,0,0H681.54a2.11,2.11,0,0,1-2.11-2.11V571.42A2.11,2.11,0,0,1,681.54,569.32Z" transform="translate(1376.36 1153.55) rotate(180)"/><path class="cls-25" d="M743.41,885.47h15.39a0,0,0,0,1,0,0v14.92a0,0,0,0,1,0,0H743.41a2.11,2.11,0,0,1-2.11-2.11V887.58A2.11,2.11,0,0,1,743.41,885.47Z" transform="translate(1500.12 1785.86) rotate(180)"/><path class="cls-25" d="M867.75,724.38h15.39a0,0,0,0,1,0,0V739.3a0,0,0,0,1,0,0H867.75a2.11,2.11,0,0,1-2.11-2.11V726.49A2.11,2.11,0,0,1,867.75,724.38Z"/><path class="cls-25" d="M693.92,394.91h15.39a0,0,0,0,1,0,0v14.92a0,0,0,0,1,0,0H693.92a2.11,2.11,0,0,1-2.11-2.11V397A2.11,2.11,0,0,1,693.92,394.91Z"/><path class="cls-25" d="M758,391.16h15.39a0,0,0,0,1,0,0v14.92a0,0,0,0,1,0,0H758a2.11,2.11,0,0,1-2.11-2.11V393.27A2.11,2.11,0,0,1,758,391.16Z" transform="translate(1529.31 797.24) rotate(180)"/><path class="cls-26" d="M668.26,872.51H643.89a2.11,2.11,0,0,0-2.11,2.11v10.71a2.11,2.11,0,0,0,2.11,2.11h24.37a2.11,2.11,0,0,0,2.11-2.11V874.62A2.11,2.11,0,0,0,668.26,872.51Z"/><path class="cls-26" d="M621.69,852.14H597.33a2.11,2.11,0,0,0-2.11,2.11V865a2.11,2.11,0,0,0,2.11,2.11h24.37A2.11,2.11,0,0,0,623.8,865V854.25A2.11,2.11,0,0,0,621.69,852.14Z"/><path class="cls-25" d="M767.78,984.24H743.41a2.11,2.11,0,0,0-2.11,2.11v10.71a2.11,2.11,0,0,0,2.11,2.11h24.37a2.11,2.11,0,0,0,2.11-2.11V986.34A2.11,2.11,0,0,0,767.78,984.24Z"/><path class="cls-25" d="M863,620.85H838.62a2.11,2.11,0,0,0-2.11,2.11v10.71a2.11,2.11,0,0,0,2.11,2.11H863a2.11,2.11,0,0,0,2.11-2.11V623A2.11,2.11,0,0,0,863,620.85Z"/><path class="cls-25" d="M814,434.73H789.68a2.11,2.11,0,0,0-2.11,2.11v10.71a2.11,2.11,0,0,0,2.11,2.11H814a2.11,2.11,0,0,0,2.11-2.11V436.84A2.11,2.11,0,0,0,814,434.73Z"/><path class="cls-25" d="M893.76,466.4H869.39a2.11,2.11,0,0,0-2.11,2.11v10.71a2.11,2.11,0,0,0,2.11,2.11h24.37a2.11,2.11,0,0,0,2.11-2.11V468.5A2.11,2.11,0,0,0,893.76,466.4Z"/><path class="cls-25" d="M842.87,641.57H818.5a2.11,2.11,0,0,0-2.11,2.11v10.71a2.11,2.11,0,0,0,2.11,2.11h24.37a2.11,2.11,0,0,0,2.11-2.11V643.68A2.11,2.11,0,0,0,842.87,641.57Z"/><path class="cls-25" d="M754.48,696.73H730.11a2.11,2.11,0,0,0-2.11,2.11v10.71a2.11,2.11,0,0,0,2.11,2.11h24.37a2.11,2.11,0,0,0,2.11-2.11V698.84A2.11,2.11,0,0,0,754.48,696.73Z"/><path class="cls-25" d="M734.65,1004.12H710.29a2.11,2.11,0,0,0-2.11,2.11v10.71a2.11,2.11,0,0,0,2.11,2.11h24.37a2.11,2.11,0,0,0,2.11-2.11v-10.71A2.11,2.11,0,0,0,734.65,1004.12Z"/><path class="cls-25" d="M1303.8,768.92h23a0,0,0,0,1,0,0v14.92a0,0,0,0,1,0,0h-23a2.11,2.11,0,0,1-2.11-2.11V771A2.11,2.11,0,0,1,1303.8,768.92Z"/><path class="cls-25" d="M1324.44,439.6h23a0,0,0,0,1,0,0v14.92a0,0,0,0,1,0,0h-23a2.11,2.11,0,0,1-2.11-2.11V441.7A2.11,2.11,0,0,1,1324.44,439.6Z"/><path class="cls-25" d="M1311.44,748.56h15.39a0,0,0,0,1,0,0v14.92a0,0,0,0,1,0,0h-15.39a2.11,2.11,0,0,1-2.11-2.11V750.66A2.11,2.11,0,0,1,1311.44,748.56Z"/><path class="cls-25" d="M1332.07,460.95h15.39a0,0,0,0,1,0,0v14.92a0,0,0,0,1,0,0h-15.39a2.11,2.11,0,0,1-2.11-2.11V463.06a2.11,2.11,0,0,1,2.11-2.11Z"/><path class="cls-25" d="M1311.44,569.32h15.39a0,0,0,0,1,0,0v14.92a0,0,0,0,1,0,0h-15.39a2.11,2.11,0,0,1-2.11-2.11V571.42A2.11,2.11,0,0,1,1311.44,569.32Z"/><path class="cls-25" d="M1249.56,885.47H1265a0,0,0,0,1,0,0v14.92a0,0,0,0,1,0,0h-15.39a2.11,2.11,0,0,1-2.11-2.11V887.58A2.11,2.11,0,0,1,1249.56,885.47Z"/><path class="cls-25" d="M1125.22,724.38h15.39a0,0,0,0,1,0,0V739.3a0,0,0,0,1,0,0h-15.39a2.11,2.11,0,0,1-2.11-2.11V726.49A2.11,2.11,0,0,1,1125.22,724.38Z" transform="translate(2263.73 1463.69) rotate(-180)"/><path class="cls-25" d="M1298.81,394.91h15.39a0,0,0,0,1,0,0v14.92a0,0,0,0,1,0,0h-15.39a2.11,2.11,0,0,1-2.11-2.11V397A2.11,2.11,0,0,1,1298.81,394.91Z" transform="translate(2610.91 804.73) rotate(-180)"/><path class="cls-25" d="M1234.79,391.16h15.39a0,0,0,0,1,0,0v14.92a0,0,0,0,1,0,0h-15.39a2.11,2.11,0,0,1-2.11-2.11V393.27a2.11,2.11,0,0,1,2.11-2.11Z"/><path class="cls-25" d="M1238.53,984.69h24.37a2.11,2.11,0,0,1,2.11,2.11V997.5a2.11,2.11,0,0,1-2.11,2.11h-24.37a2.11,2.11,0,0,1-2.11-2.11V986.79A2.11,2.11,0,0,1,1238.53,984.69Z"/><path class="cls-25" d="M1143.32,591.43h24.37a2.11,2.11,0,0,1,2.11,2.11v10.71a2.11,2.11,0,0,1-2.11,2.11h-24.37a2.11,2.11,0,0,1-2.11-2.11V593.54A2.11,2.11,0,0,1,1143.32,591.43Z"/><path class="cls-25" d="M1192.26,434.73h24.37a2.11,2.11,0,0,1,2.11,2.11v10.71a2.11,2.11,0,0,1-2.11,2.11h-24.37a2.11,2.11,0,0,1-2.11-2.11V436.84A2.11,2.11,0,0,1,1192.26,434.73Z"/><path class="cls-25" d="M1112.55,466.4h24.37a2.11,2.11,0,0,1,2.11,2.11v10.71a2.11,2.11,0,0,1-2.11,2.11h-24.37a2.11,2.11,0,0,1-2.11-2.11V468.5A2.11,2.11,0,0,1,1112.55,466.4Z"/><path class="cls-25" d="M1163.44,612.15h24.37a2.11,2.11,0,0,1,2.11,2.11V625a2.11,2.11,0,0,1-2.11,2.11h-24.37a2.11,2.11,0,0,1-2.11-2.11V614.26A2.11,2.11,0,0,1,1163.44,612.15Z"/><path class="cls-25" d="M1185.12,688.08h24.37a2.11,2.11,0,0,1,2.11,2.11v10.71a2.11,2.11,0,0,1-2.11,2.11h-24.37a2.11,2.11,0,0,1-2.11-2.11V690.18A2.11,2.11,0,0,1,1185.12,688.08Z"/><path class="cls-25" d="M1271.65,1004.12H1296a2.11,2.11,0,0,1,2.11,2.11v10.71A2.11,2.11,0,0,1,1296,1019h-24.37a2.11,2.11,0,0,1-2.11-2.11v-10.71A2.11,2.11,0,0,1,1271.65,1004.12Z"/><path class="cls-26" d="M650.44,984.73H626.07a2.11,2.11,0,0,0-2.11,2.11v10.71a2.11,2.11,0,0,0,2.11,2.11h24.37a2.11,2.11,0,0,0,2.11-2.11V986.83A2.11,2.11,0,0,0,650.44,984.73Z"/><path class="cls-26" d="M639.68,964.36H615.31a2.11,2.11,0,0,0-2.11,2.11v10.71a2.11,2.11,0,0,0,2.11,2.11h24.37a2.11,2.11,0,0,0,2.11-2.11V966.46A2.11,2.11,0,0,0,639.68,964.36Z"/><rect class="cls-26" x="618.43" y="760.66" width="26.41" height="7.08" rx="1" ry="1"/><rect class="cls-25" x="718.68" y="656.28" width="26.41" height="7.08" rx="1" ry="1"/><rect class="cls-25" x="1261.17" y="656.28" width="26.41" height="7.08" rx="1" ry="1"/><rect class="cls-25" x="1162.37" y="775.17" width="26.41" height="7.08" rx="1" ry="1"/><rect class="cls-25" x="1261.17" y="919.81" width="26.41" height="7.08" rx="1" ry="1"/><rect class="cls-25" x="817.48" y="775.17" width="26.41" height="7.08" rx="1" ry="1"/><rect class="cls-25" x="718.68" y="921.97" width="26.41" height="7.08" rx="1" ry="1"/><path class="cls-20" d="M1202.71,1000.78l-27.14-13.52-27.14,13.52V821.39c0-.8,1.08-1.46,2.41-1.46h49.45c1.33,0,2.41.65,2.41,1.46Z"/><path class="cls-33" d="M1255.5,214.79a1,1,0,0,1-1-1.06v-.68a1,1,0,0,1,1-1.06H1259a1,1,0,0,1,1,1.06v.68a1,1,0,0,1-1,1.06Z"/><path class="cls-33" d="M1247.13,235.42a1,1,0,0,1-1-1.06v-.68a1,1,0,0,1,1-1.06h3.52a1,1,0,0,1,1,1.06v.68a1,1,0,0,1-1,1.06Z"/><path class="cls-33" d="M1255.74,222c-.66-.21-1.34-.4-2-.54a10.55,10.55,0,0,1-3.94-1.31,2.67,2.67,0,0,1-1.37-1.81,3.37,3.37,0,0,1,.51-2.68,2.59,2.59,0,0,1,.3-.33,3.55,3.55,0,0,1,1.27-.62,9,9,0,0,1,1.11-.13,1.29,1.29,0,0,0,1.16-1.68,1.42,1.42,0,0,0-1.46-.94l-.73,0c-.14,0-.49,0-.63.07a6,6,0,0,0-.76.19,5.58,5.58,0,0,0-2.85,2.33,5.82,5.82,0,0,0,.47,6.63c1.78,2,4.73,2.41,7.18,3.07a8.32,8.32,0,0,1,3.19,1.38,3.29,3.29,0,0,1,1.1,2.18,5,5,0,0,1-.4,3,3.43,3.43,0,0,1-1.18,1.28,5.13,5.13,0,0,1-.63.36,3.63,3.63,0,0,1-1.09.24l-.3,0-.55,0a1.31,1.31,0,1,0,.17,2.62l.93-.06a7.07,7.07,0,0,0,4.36-2c1.7-1.89,1.89-4.89,1.11-7.23S1257.94,222.74,1255.74,222Z"/><path class="cls-33" d="M809.43,214.79a1,1,0,0,1-1-1.06v-.68a1,1,0,0,1,1-1.06H813a1,1,0,0,1,1,1.06v.68a1,1,0,0,1-1,1.06Z"/><path class="cls-33" d="M801.07,235.42a1,1,0,0,1-1-1.06v-.68a1,1,0,0,1,1-1.06h3.52a1,1,0,0,1,1,1.06v.68a1,1,0,0,1-1,1.06Z"/><path class="cls-33" d="M809.68,222c-.66-.21-1.34-.4-2-.54a10.55,10.55,0,0,1-3.94-1.31,2.67,2.67,0,0,1-1.37-1.81,3.37,3.37,0,0,1,.51-2.68,2.59,2.59,0,0,1,.3-.33,3.55,3.55,0,0,1,1.27-.62,9,9,0,0,1,1.11-.13,1.29,1.29,0,0,0,1.16-1.68,1.42,1.42,0,0,0-1.46-.94l-.73,0c-.14,0-.49,0-.63.07a6,6,0,0,0-.76.19,5.58,5.58,0,0,0-2.85,2.33,5.82,5.82,0,0,0,.47,6.63c1.78,2,4.73,2.41,7.18,3.07a8.32,8.32,0,0,1,3.19,1.38,3.29,3.29,0,0,1,1.1,2.18,5,5,0,0,1-.4,3,3.43,3.43,0,0,1-1.18,1.28,5.13,5.13,0,0,1-.63.36,3.63,3.63,0,0,1-1.09.24l-.3,0-.55,0a1.31,1.31,0,1,0,.17,2.62l.93-.06a7.07,7.07,0,0,0,4.36-2c1.7-1.89,1.89-4.89,1.11-7.23S811.87,222.74,809.68,222Z"/><rect class="cls-34" x="151.26" y="1013.42" width="10.42" height="42.02"/><path class="cls-35" d="M152.13,1009.94v42.45a3,3,0,0,1-.11.8,3,3,0,0,1-2.94,2.25H92.54a3,3,0,0,1-3-3.05v-42.45a3.06,3.06,0,0,1,3-3.06h56.54A3.06,3.06,0,0,1,152.13,1009.94Z"/><path class="cls-35" d="M271.8,1051.84,256,1020.05H213.12V977.56H163.89a2.78,2.78,0,0,0-3,2.54v72.8a2.78,2.78,0,0,0,3,2.54H269.11C271.27,1055.44,272.71,1053.52,271.8,1051.84Zm-67.46-31.78H191.16V984.72h13.18Z"/><rect class="cls-36" x="-125.44" y="730.08" width="492.5" height="37.4" transform="translate(869.59 627.97) rotate(90)"/><rect class="cls-36" x="40.69" y="502.28" width="409.95" height="37.4"/><line class="cls-37" x1="417.65" y1="541.85" x2="417.65" y2="733.42"/><path class="cls-34" d="M426.13,545.63h-17a4.87,4.87,0,0,1-4.87-4.87v0H431v0A4.87,4.87,0,0,1,426.13,545.63Z"/><rect class="cls-5" x="381.66" y="728.49" width="71.99" height="37.65" rx="3.64" ry="3.64"/><rect class="cls-34" x="95.71" y="1053.19" width="172.06" height="29.45" rx="14.72" ry="14.72"/><rect class="cls-38" x="101.03" y="1057.96" width="161.41" height="19.92" rx="9.67" ry="9.67"/><line class="cls-36" x1="102.11" y1="980.58" x2="139.51" y2="943.31"/><line class="cls-36" x1="139.51" y1="980.58" x2="102.11" y2="943.31"/><line class="cls-36" x1="102.11" y1="943.31" x2="139.51" y2="906.04"/><line class="cls-36" x1="139.51" y1="943.31" x2="102.11" y2="906.04"/><line class="cls-36" x1="102.11" y1="907.62" x2="139.51" y2="870.35"/><line class="cls-36" x1="139.51" y1="907.62" x2="102.11" y2="870.35"/><line class="cls-36" x1="102.11" y1="870.35" x2="139.51" y2="833.08"/><line class="cls-36" x1="139.51" y1="870.35" x2="102.11" y2="833.08"/><line class="cls-36" x1="102.11" y1="833.08" x2="139.51" y2="795.82"/><line class="cls-36" x1="139.51" y1="833.08" x2="102.11" y2="795.82"/><line class="cls-36" x1="102.11" y1="795.82" x2="139.51" y2="758.55"/><line class="cls-36" x1="139.51" y1="795.82" x2="102.11" y2="758.55"/><line class="cls-36" x1="102.11" y1="760.13" x2="139.51" y2="722.86"/><line class="cls-36" x1="139.51" y1="760.13" x2="102.11" y2="722.86"/><line class="cls-36" x1="102.11" y1="722.86" x2="139.51" y2="685.59"/><line class="cls-36" x1="139.51" y1="722.86" x2="102.11" y2="685.59"/><line class="cls-36" x1="102.11" y1="687.17" x2="139.51" y2="649.9"/><line class="cls-36" x1="139.51" y1="687.17" x2="102.11" y2="649.9"/><line class="cls-36" x1="102.11" y1="649.9" x2="139.51" y2="612.63"/><line class="cls-36" x1="139.51" y1="649.9" x2="102.11" y2="612.63"/><line class="cls-36" x1="102.11" y1="614.21" x2="139.51" y2="576.94"/><line class="cls-36" x1="139.51" y1="614.21" x2="102.11" y2="576.94"/><line class="cls-36" x1="102.11" y1="576.94" x2="139.51" y2="539.67"/><line class="cls-36" x1="139.51" y1="576.94" x2="102.11" y2="539.67"/><circle class="cls-39" cx="116.87" cy="1067.92" r="6.14"/><circle class="cls-39" cx="138.49" cy="1067.92" r="6.14"/><circle class="cls-39" cx="160.11" cy="1067.92" r="6.14"/><circle class="cls-39" cx="181.74" cy="1067.92" r="6.14"/><circle class="cls-39" cx="203.36" cy="1067.92" r="6.14"/><circle class="cls-39" cx="224.98" cy="1067.92" r="6.14"/><circle class="cls-39" cx="246.61" cy="1067.92" r="6.14"/><path class="cls-40" d="M256,1020.05H213.12V977.56h19.74a3,3,0,0,1,2.69,1.48Z"/><rect class="cls-40" x="191.16" y="984.73" width="13.18" height="35.34"/><path class="cls-34" d="M98.75,980.58H142a3,3,0,0,1,3,3v23.27a0,0,0,0,1,0,0H95.71a0,0,0,0,1,0,0V983.62A3,3,0,0,1,98.75,980.58Z"/><line class="cls-36" x1="102.11" y1="943.31" x2="139.51" y2="943.31"/><line class="cls-36" x1="102.11" y1="906.83" x2="139.51" y2="906.83"/><line class="cls-36" x1="102.11" y1="869.56" x2="139.51" y2="869.56"/><line class="cls-36" x1="102.11" y1="833.08" x2="139.51" y2="833.08"/><line class="cls-36" x1="102.11" y1="796.61" x2="139.51" y2="796.61"/><line class="cls-36" x1="102.11" y1="759.34" x2="139.51" y2="759.34"/><line class="cls-36" x1="102.11" y1="722.86" x2="139.51" y2="722.86"/><line class="cls-36" x1="102.11" y1="686.38" x2="139.51" y2="686.38"/><line class="cls-36" x1="102.11" y1="649.9" x2="139.51" y2="649.9"/><line class="cls-36" x1="102.11" y1="613.42" x2="139.51" y2="613.42"/><line class="cls-36" x1="102.11" y1="576.94" x2="139.51" y2="576.94"/><line class="cls-36" x1="450.64" y1="539.67" x2="412.79" y2="502.28"/><line class="cls-36" x1="450.64" y1="502.28" x2="412.79" y2="539.67"/><line class="cls-36" x1="414.39" y1="539.67" x2="376.54" y2="502.28"/><line class="cls-36" x1="414.39" y1="502.28" x2="376.54" y2="539.67"/><line class="cls-36" x1="376.54" y1="539.67" x2="338.69" y2="502.28"/><line class="cls-36" x1="376.54" y1="502.28" x2="338.69" y2="539.67"/><line class="cls-36" x1="338.69" y1="539.67" x2="300.84" y2="502.28"/><line class="cls-36" x1="338.69" y1="502.28" x2="300.84" y2="539.67"/><line class="cls-36" x1="300.84" y1="539.67" x2="262.99" y2="502.28"/><line class="cls-36" x1="300.84" y1="502.28" x2="262.99" y2="539.67"/><line class="cls-36" x1="264.59" y1="539.67" x2="226.74" y2="502.28"/><line class="cls-36" x1="264.59" y1="502.28" x2="226.74" y2="539.67"/><line class="cls-36" x1="226.74" y1="539.67" x2="188.89" y2="502.28"/><line class="cls-36" x1="226.74" y1="502.28" x2="188.89" y2="539.67"/><line class="cls-36" x1="190.49" y1="539.67" x2="152.64" y2="502.28"/><line class="cls-36" x1="190.49" y1="502.28" x2="152.64" y2="539.67"/><line class="cls-36" x1="152.64" y1="539.67" x2="114.79" y2="502.28"/><line class="cls-36" x1="152.64" y1="502.28" x2="114.79" y2="539.67"/><line class="cls-36" x1="116.39" y1="539.67" x2="78.54" y2="502.28"/><line class="cls-36" x1="116.39" y1="502.28" x2="78.54" y2="539.67"/><line class="cls-36" x1="78.54" y1="539.67" x2="40.69" y2="502.28"/><line class="cls-36" x1="78.54" y1="502.28" x2="40.69" y2="539.67"/><line class="cls-36" x1="413.59" y1="539.67" x2="413.59" y2="502.28"/><line class="cls-36" x1="375.74" y1="539.67" x2="375.74" y2="502.28"/><line class="cls-36" x1="338.69" y1="539.67" x2="338.69" y2="502.28"/><line class="cls-36" x1="301.64" y1="539.67" x2="301.64" y2="502.28"/><line class="cls-36" x1="263.79" y1="539.67" x2="263.79" y2="502.28"/><line class="cls-36" x1="226.74" y1="539.67" x2="226.74" y2="502.28"/><line class="cls-36" x1="189.69" y1="539.67" x2="189.69" y2="502.28"/><line class="cls-36" x1="115.59" y1="539.67" x2="115.59" y2="502.28"/><path class="cls-34" d="M100.41,491.85h50.2a3.15,3.15,0,0,1,3.15,3.15v46.14a0,0,0,0,1,0,0H100.41a0,0,0,0,1,0,0V491.85A0,0,0,0,1,100.41,491.85Z"/><polygon class="cls-34" points="100.41 541.13 78.07 541.13 78.07 501.18 100.41 491.85 100.41 541.13"/><polygon class="cls-11" points="70.57 1090.6 59.26 1064.25 78.93 1085.11 70.57 1090.6"/><polygon class="cls-11" points="76.26 1089.94 74.68 1053.19 86.1 1088.15 76.26 1089.94"/><polygon class="cls-11" points="320.37 1090.78 311.33 1057.59 328.67 1087.3 320.37 1090.78"/><polygon class="cls-11" points="323.81 1089.33 330.73 1060.61 332.78 1090.08 323.81 1089.33"/><polygon class="cls-11" points="457.87 1084.06 479.95 1059.38 465.33 1089.09 457.87 1084.06"/><path class="cls-34" d="M94.78,540.9h52.06a0,0,0,0,1,0,0v8.73a2.62,2.62,0,0,1-2.62,2.62H97.41a2.62,2.62,0,0,1-2.62-2.62V540.9A0,0,0,0,1,94.78,540.9Z"/><path class="cls-8" d="M1331,1053.57h0a13.54,13.54,0,0,1,13.54,13.54v15.52H1110.8v-15.52a13.54,13.54,0,0,1,13.54-13.54Z"/><path class="cls-6" d="M853.25,369v48.33H806.67V369H778.46v684.62H883.14V544.72h15.19V530.43H904V369ZM840.1,725.62v49.55H821.27V725.62a9.41,9.41,0,1,1,18.83,0ZM806.67,489c0-12.33,10.43-22.33,23.29-22.33a23.75,23.75,0,0,1,16.48,6.54A21.84,21.84,0,0,1,853.26,489v18.33H806.67ZM854.79,828a3.21,3.21,0,0,1-2.27.94H849.8v171.88l-19.12-13.53-19.11,13.53V828.91h-2.72a3.22,3.22,0,0,1,0-6.43h2.72v-1.09a1.59,1.59,0,0,1,1.7-1.46H848.1a1.59,1.59,0,0,1,1.7,1.46v1.09h2.72a3.22,3.22,0,0,1,2.27,5.49Z"/><path class="cls-6" d="M1296.71,369.13v48.16h-46.53V369.13h-25.5v684.45h102.15V544.72H1342v-14.3h5.45v-14.3h0v-147Zm-12.92,550.68H1265V870.26a9.42,9.42,0,0,1,18.84,0Zm0-263.53H1265V606.73a9.42,9.42,0,0,1,18.84,0Zm12.92-148.91h-46.59V489c0-12.33,10.43-22.33,23.29-22.33a23.77,23.77,0,0,1,16.48,6.54,21.84,21.84,0,0,1,6.82,15.79Z"/><path class="cls-41" d="M1202.72,821.39v179.4l-27.15-13.53V819.93h24.74C1201.64,819.93,1202.72,820.58,1202.72,821.39Z"/><path class="cls-33" d="M1179.4,883.27a1.86,1.86,0,0,1-1.84-1.89v-1.21a1.86,1.86,0,0,1,1.84-1.89h6.3a1.86,1.86,0,0,1,1.84,1.89v1.21a1.86,1.86,0,0,1-1.84,1.89Z"/><path class="cls-33" d="M1164.45,920.15a1.86,1.86,0,0,1-1.84-1.89v-1.21a1.86,1.86,0,0,1,1.84-1.89h6.3a1.86,1.86,0,0,1,1.84,1.89v1.21a1.86,1.86,0,0,1-1.84,1.89Z"/><path class="cls-33" d="M1179.84,896.24c-1.19-.38-2.39-.71-3.6-1-4-.86-4.92-1.11-7-2.34a4.77,4.77,0,0,1-2.45-3.24,6,6,0,0,1,.92-4.79,4.63,4.63,0,0,1,.54-.59,6.35,6.35,0,0,1,2.28-1.11,16.16,16.16,0,0,1,2-.24,2.3,2.3,0,0,0,2.08-3,2.54,2.54,0,0,0-2.61-1.67l-1.3.08c-.25,0-.87.07-1.12.12a10.71,10.71,0,0,0-1.37.34,10,10,0,0,0-5.09,4.17c-2.13,3.52-2,8.71.84,11.84,3.17,3.54,8.46,4.3,12.84,5.48a14.88,14.88,0,0,1,5.7,2.47,5.87,5.87,0,0,1,2,3.9,8.93,8.93,0,0,1-.72,5.31,6.14,6.14,0,0,1-2.11,2.29,9.18,9.18,0,0,1-1.13.65,6.49,6.49,0,0,1-1.95.42l-.54,0-1,.06a2.35,2.35,0,1,0,.31,4.68l1.66-.1c2.13-.13,5.78-1.24,7.79-3.49,3-3.38,3.37-8.74,2-12.92S1183.76,897.49,1179.84,896.24Z"/><rect class="cls-25" x="793.92" y="822.47" width="73.53" height="6.43" rx="3.11" ry="3.11"/><path class="cls-20" d="M857.82,1000.78l-27.14-13.52-27.14,13.52V821.39c0-.8,1.08-1.46,2.41-1.46h49.45c1.33,0,2.41.65,2.41,1.46Z"/><path class="cls-41" d="M857.83,821.39v179.4l-27.15-13.53V819.93h24.74C856.75,819.93,857.83,820.58,857.83,821.39Z"/><path class="cls-33" d="M834.51,883.27a1.86,1.86,0,0,1-1.84-1.89v-1.21a1.86,1.86,0,0,1,1.84-1.89h6.3a1.86,1.86,0,0,1,1.84,1.89v1.21a1.86,1.86,0,0,1-1.84,1.89Z"/><path class="cls-33" d="M819.56,920.15a1.86,1.86,0,0,1-1.84-1.89v-1.21a1.86,1.86,0,0,1,1.84-1.89h6.3a1.86,1.86,0,0,1,1.84,1.89v1.21a1.86,1.86,0,0,1-1.84,1.89Z"/><path class="cls-33" d="M834.95,896.24c-1.19-.38-2.39-.71-3.6-1-4-.86-4.92-1.11-7-2.34a4.77,4.77,0,0,1-2.45-3.24,6,6,0,0,1,.92-4.79,4.63,4.63,0,0,1,.54-.59,6.35,6.35,0,0,1,2.28-1.11,16.16,16.16,0,0,1,2-.24,2.3,2.3,0,0,0,2.08-3,2.54,2.54,0,0,0-2.61-1.67l-1.3.08c-.25,0-.87.07-1.12.12a10.71,10.71,0,0,0-1.37.34,10,10,0,0,0-5.09,4.17c-2.13,3.52-2,8.71.84,11.84,3.17,3.54,8.46,4.3,12.84,5.48a14.88,14.88,0,0,1,5.7,2.47,5.87,5.87,0,0,1,2,3.9,8.93,8.93,0,0,1-.72,5.31,6.14,6.14,0,0,1-2.11,2.29,9.18,9.18,0,0,1-1.13.65,6.49,6.49,0,0,1-1.95.42l-.54,0-1,.06a2.35,2.35,0,1,0,.31,4.68l1.66-.1c2.13-.13,5.78-1.24,7.79-3.49,3-3.38,3.37-8.74,2-12.92S838.87,897.49,834.95,896.24Z"/><path class="cls-42" d="M679.43,601.85l-.18,480.79H632.87v-322h8.18V724a9.41,9.41,0,0,0-8.18-9.33V632.9H644V601.85Z"/><path class="cls-8" d="M884.64,1053.57h0a13.54,13.54,0,0,1,13.54,13.54v15.52H664.39v-15.52a13.54,13.54,0,0,1,13.54-13.54"/><polygon class="cls-11" points="1238.11 1104.34 1227.69 1117.12 1238.11 1202.91 1248.53 1117.12 1238.11 1104.34"/><rect class="cls-11" x="24.92" y="1082.64" width="1395.04" height="35.29" transform="translate(1444.88 2200.57) rotate(180)"/><path class="cls-11" d="M1777.87,1082.64s48.74-1.21,9.89,89.34l-10.85-48.43Z"/><polygon class="cls-11" points="1761.39 1102.39 1778.02 1117.04 1761.39 1215.35 1744.76 1117.04 1761.39 1102.39"/><rect class="cls-11" x="382.83" y="1082.64" width="1395.04" height="35.29"/><polygon class="cls-11" points="1350.3 1099.63 1334.93 1109.05 1350.3 1200.91 1365.68 1109.05 1350.3 1099.63"/><polygon class="cls-11" points="1324.36 1096.39 1310.9 1108.25 1324.36 1187.85 1337.83 1108.25 1324.36 1096.39"/><polygon class="cls-11" points="1571.15 1096.39 1560.42 1105.84 1571.15 1169.27 1581.88 1105.84 1571.15 1096.39"/><rect class="cls-21" x="901.68" y="244.1" width="29.22" height="5.15"/><rect class="cls-21" x="958.87" y="244.1" width="29.22" height="5.15"/><path class="cls-42" d="M1420,601.85l.14,480.79h-46.71v-322h9.42V724a9.42,9.42,0,0,0-9.42-9.42V632.9h11.17v-31Z"/><path class="cls-6" d="M586.3,555.95V956.9h-.15v125.41H498V784.53h29.31V556.73a.78.78,0,0,1,.78-.78Z"/><path class="cls-8" d="M1420.11,863h203.71a0,0,0,0,1,0,0v82.42a0,0,0,0,1,0,0h-198a5.75,5.75,0,0,1-5.75-5.75V863a0,0,0,0,1,0,0Z" transform="translate(3043.93 1808.4) rotate(-180)"/><path class="cls-8" d="M1454.42,688.31h93.81a0,0,0,0,1,0,0V816.38a0,0,0,0,1,0,0H1461a6.57,6.57,0,0,1-6.57-6.57V688.31A0,0,0,0,1,1454.42,688.31Z" transform="translate(3002.66 1504.69) rotate(-180)"/><path class="cls-8" d="M1449.6,589.12h64.32a0,0,0,0,1,0,0V728.49a0,0,0,0,1,0,0h-59.21a5.11,5.11,0,0,1-5.11-5.11V589.12A0,0,0,0,1,1449.6,589.12Z" transform="translate(2963.52 1317.61) rotate(-180)"/><path class="cls-43" d="M152.13,1009.94v42.45a3,3,0,0,1-.11.8H120.81v-46.31h28.27A3.06,3.06,0,0,1,152.13,1009.94Z"/><path class="cls-43" d="M270.28,1055.44H198.92v-35.38h6.59V984.72h-6.59v-7.17h15.37v42.49h42.85L273,1051.84C273.88,1053.52,272.44,1055.44,270.28,1055.44Z"/><path class="cls-6" d="M453.65,732.13V762.5a3.64,3.64,0,0,1-3.64,3.64H417.65V728.49H450A3.64,3.64,0,0,1,453.65,732.13Z"/><path class="cls-5" d="M1623.82,903.61v179H1420.11V956.9H1420v-401h58.2a.78.78,0,0,1,.78.78v227.8h35V749.68h41a4.84,4.84,0,0,1,4.84,4.84V898.33h58.75A5.28,5.28,0,0,1,1623.82,903.61Z"/><path class="cls-25" d="M1545.73,802h-24.37a2.11,2.11,0,0,0-2.11,2.11v10.71a2.11,2.11,0,0,0,2.11,2.11h24.37a2.11,2.11,0,0,0,2.11-2.11V804.13A2.11,2.11,0,0,0,1545.73,802Z"/><path class="cls-25" d="M1520.43,959.11h-24.37a2.11,2.11,0,0,0-2.11,2.11v10.71a2.11,2.11,0,0,0,2.11,2.11h24.37a2.11,2.11,0,0,0,2.11-2.11V961.21A2.11,2.11,0,0,0,1520.43,959.11Z"/><path class="cls-25" d="M1586.72,1022.25h24.37a2.11,2.11,0,0,1,2.11,2.11v10.71a2.11,2.11,0,0,1-2.11,2.11h-24.37a2.11,2.11,0,0,1-2.11-2.11v-10.71A2.11,2.11,0,0,1,1586.72,1022.25Z"/><path class="cls-25" d="M1577.43,950.57h24.37a2.11,2.11,0,0,1,2.11,2.11v10.71a2.11,2.11,0,0,1-2.11,2.11h-24.37a2.11,2.11,0,0,1-2.11-2.11V952.68A2.11,2.11,0,0,1,1577.43,950.57Z"/><path class="cls-25" d="M1604.89,1042.75h18.92a0,0,0,0,1,0,0v14.92a0,0,0,0,1,0,0h-18.92a2.11,2.11,0,0,1-2.11-2.11v-10.71A2.11,2.11,0,0,1,1604.89,1042.75Z"/><path class="cls-6" d="M1623.82,903.61v179H1508.55V866.45h-.3V784.53h5.67V749.68h41a4.84,4.84,0,0,1,4.84,4.84V898.33h58.75A5.28,5.28,0,0,1,1623.82,903.61Z"/><path class="cls-25" d="M1422.06,824h23a0,0,0,0,1,0,0v14.92a0,0,0,0,1,0,0h-23a2.11,2.11,0,0,1-2.11-2.11V826.06A2.11,2.11,0,0,1,1422.06,824Z" transform="translate(2865.05 1662.83) rotate(180)"/><path class="cls-25" d="M1440.43,1000.78v10.71a2.11,2.11,0,0,1-2.11,2.11h-18.21V998.68h18.21A2.1,2.1,0,0,1,1440.43,1000.78Z"/><path class="cls-25" d="M1422.06,631.22h23a0,0,0,0,1,0,0v14.92a0,0,0,0,1,0,0h-23A2.11,2.11,0,0,1,1420,644V633.33A2.11,2.11,0,0,1,1422.06,631.22Z" transform="translate(2865.05 1277.36) rotate(180)"/><path class="cls-25" d="M1455.91,610.71h23a0,0,0,0,1,0,0v14.92a0,0,0,0,1,0,0h-23a2.11,2.11,0,0,1-2.11-2.11V612.81A2.11,2.11,0,0,1,1455.91,610.71Z"/><path class="cls-25" d="M1464.12,846.49h-24.37a2.11,2.11,0,0,0-2.11,2.11V859.3a2.11,2.11,0,0,0,2.11,2.11h24.37a2.11,2.11,0,0,0,2.11-2.11V848.59A2.11,2.11,0,0,0,1464.12,846.49Z"/><polygon class="cls-11" points="1422.17 1090.78 1413.13 1057.59 1430.47 1087.3 1422.17 1090.78"/><polygon class="cls-11" points="1425.61 1089.33 1432.52 1060.61 1434.58 1090.08 1425.61 1089.33"/><polygon class="cls-11" points="1659.1 1082.69 1678.77 1061.84 1667.46 1088.18 1659.1 1082.69"/><polygon class="cls-11" points="1651.92 1085.74 1663.34 1050.78 1661.76 1087.52 1651.92 1085.74"/></g></g></svg>